<?xml version="1.0" encoding="UTF-8" standalone="no"?>
<svg
   width="554"
   height="558"
   viewBox="0 0 554 558"
   fill="none"
   version="1.1"
   id="svg38"
   sodipodi:docname="favicon.svg"
   inkscape:version="1.4.2 (ebf0e940d0, 2025-05-08)"
   xmlns:inkscape="http://www.inkscape.org/namespaces/inkscape"
   xmlns:sodipodi="http://sodipodi.sourceforge.net/DTD/sodipodi-0.dtd"
   xmlns="http://www.w3.org/2000/svg"
   xmlns:svg="http://www.w3.org/2000/svg">
  <sodipodi:namedview
     id="namedview38"
     pagecolor="#ffffff"
     bordercolor="#000000"
     borderopacity="0.25"
     inkscape:showpageshadow="2"
     inkscape:pageopacity="0.0"
     inkscape:pagecheckerboard="0"
     inkscape:deskcolor="#d1d1d1"
     inkscape:zoom="1.4175627"
     inkscape:cx="277.23641"
     inkscape:cy="279"
     inkscape:window-width="1920"
     inkscape:window-height="1000"
     inkscape:window-x="0"
     inkscape:window-y="0"
     inkscape:window-maximized="1"
     inkscape:current-layer="g38" />
  <g
     clip-path="url(#clip0_58_2)"
     id="g38">
    <rect
       width="554"
       height="558"
       fill="white"
       id="rect1" />
    <path
       d="M554 33.7V558H260.69L273 497C363 501.5 454 467.5 492 403C495.62 386.199 497.75 364.523 497 348.5C491.496 323.419 486.096 313.067 476.902 295.443C475.234 292.245 473.441 288.808 471.5 285C478.949 235.063 476.605 203.896 473.119 157.531C472.595 150.569 472.046 143.263 471.5 135.5L543 27.5L554 33.7Z"
       fill="#991F24"
       id="path1" />
    <path
       d="M102 283.5C107.957 226.376 108 136.5 108 136.5L147.5 120L288.5 154C288.5 154 302.075 156.718 309 151.5C317.187 145.332 315.5 125 315.5 125L307 96.5L339.5 58C338.279 145.085 355.075 148.14 339.5 232.5C383.51 185.957 384.921 204.223 410.5 151C437.142 147.459 447.653 143.99 465.5 137.5C469.68 196.959 470.567 230.064 462 287.5C474.64 312.295 481.498 326.368 488 356C488.75 372.023 488.12 381.199 484.5 398C446.5 462.5 357.5 493 267.5 488.5C193 458.5 153.283 446.635 77 430.5C88.4074 392.587 95.9499 341.518 102 283.5Z"
       fill="#FEF6C7"
       id="path2" />
    <path
       d="M250 43.5C257.128 36.8998 260.977 33.0674 267.5 26C265.724 36.2839 264.875 42.2057 263.5 53C258.537 48.9463 255.57 46.879 250 43.5Z"
       fill="#FCA57A"
       id="path3" />
    <path
       d="M148.105 385.584C239.646 454.35 297.158 475.655 394.5 469.5L394.485 469.523C356.46 484.364 312.102 490.73 267.499 488.5C192.999 458.5 153.282 446.635 76.999 430.5C88.4064 392.587 95.9489 341.518 101.999 283.5C107.956 226.376 107.999 136.5 107.999 136.5L147.499 120L288.499 154C288.499 154 302.074 156.718 308.999 151.5C317.186 145.332 315.499 125 315.499 125L306.999 96.5L339.499 58C338.541 126.312 334.21 171.531 324.869 228.571C317.402 239.916 307.467 249.233 293.5 259L278.5 220.5L266.5 203L247 190L230 185L214 179L181 185L139.5 209.5L135.5 256.5C131.697 285.407 130.947 326.275 130.881 350.992C130.844 364.595 137.229 377.414 148.105 385.584Z"
       fill="#FCA57A"
       id="path4" />
    <path
       d="M465.499 137.5C467.996 173.012 469.318 199.124 468.152 226.632L445 206.5H406.5L396 246C384.572 240.004 373.176 233.081 365.599 223.359C382.558 201.996 396.427 180.279 410.499 151C437.141 147.459 447.652 143.99 465.499 137.5Z"
       fill="#FCA57A"
       id="path5" />
    <path
       d="M475.441 303.953C479.096 311.707 482.195 319.057 484.986 327.286L486.835 332.736L481.101 333.216C474.768 333.746 468.827 333.314 464.101 331.823C459.565 330.393 454.972 327.56 453.713 322.47C452.584 317.907 454.693 313.684 457.476 310.498C460.327 307.233 464.5 304.286 469.352 301.851L473.475 299.78L475.441 303.953ZM100.1 293.094C106.312 292.637 113.799 293.345 121.54 295.26C130.251 297.414 137.997 300.779 143.48 304.639C146.21 306.56 148.579 308.744 150.172 311.148C151.767 313.557 152.831 316.601 152.027 319.853C151.223 323.104 148.863 325.302 146.328 326.689C143.798 328.074 140.684 328.902 137.374 329.329C130.724 330.187 122.302 329.552 113.591 327.397C106.959 325.757 100.921 323.425 96.0195 320.729L93.3516 319.262L93.7217 316.239C94.491 309.96 95.2351 303.572 95.957 297.084L96.3701 293.368L100.1 293.094Z"
       fill="#E94029"
       stroke="#3B0008"
       stroke-width="9"
       id="path6" />
    <path
       d="M341.742 359.718C343.979 374.739 388.147 365.006 382.753 350.825C381.597 347.787 361.217 336.738 361.217 336.738C361.217 336.738 340.097 348.671 341.742 359.718Z"
       fill="#F2A698"
       id="path7" />
    <path
       d="M143 218.5L135.127 258.33C134.745 260.259 135.532 262.241 137.153 263.355C172.54 287.657 207.912 294.547 267 308C278.032 297.616 282.891 290.201 289.5 274.5L281 224L249 188L219.5 180H185L143 218.5Z"
       fill="white"
       id="path8" />
    <path
       d="M147.923 213.987C145.995 216.105 144.213 218.296 142.595 220.548L134.5 261.5C139.629 265.149 144.744 268.42 149.919 271.385C157.559 251.988 178.168 210 213.419 210C251.804 208.452 275.624 247.535 288.2 277.532C288.627 276.556 289.06 275.546 289.5 274.5L281 224L258.742 198.96C244.934 189.013 229.07 184 213.419 184C194.022 184.363 174.202 192.116 159.009 203.825L147.923 213.987Z"
       fill="#2C0C01"
       fill-opacity="0.15"
       id="path9" />
    <path
       d="M467.747 252.367C469.315 275.988 469.762 282.725 450.467 289.167C429.092 287.714 416.829 285.145 403.104 278.229C403.682 246.651 416.141 201.95 437.764 200.739C446.2 200.266 453.355 203.256 459.146 208.725C463.728 218.222 466.442 230.15 467.162 243.019C467.352 246.402 467.558 249.508 467.747 252.367Z"
       fill="white"
       id="path10" />
    <path
       d="M467.25 244.54C467.22 244.039 467.191 243.532 467.162 243.019C466.442 230.15 463.728 218.222 459.146 208.725C453.355 203.256 446.2 200.266 437.764 200.739C416.319 201.94 403.889 245.915 403.12 277.444C399.614 275.514 396.055 273.286 392.25 270.687C392.25 239.304 407.882 187 431.512 187C455.062 187 467.168 213.296 467.25 244.54Z"
       fill="#DFDBD9"
       id="path11" />
    <path
       d="M437 281C452.464 281 465 260.405 465 235C465 209.595 452.464 189 437 189C421.536 189 409 209.595 409 235C409 260.405 421.536 281 437 281Z"
       fill="black"
       id="path12" />
    <path
       d="M243.5 289C262.002 289 277 267.51 277 241C277 214.49 262.002 193 243.5 193C224.998 193 210 214.49 210 241C210 267.51 224.998 289 243.5 289Z"
       fill="black"
       id="path13" />
    <path
       d="M425.309 276.811C431.942 275.71 437 269.946 437 263C437 255.268 430.732 249 423 249C418.36 249 414.248 251.257 411.7 254.733C414.516 264.459 419.348 272.305 425.309 276.811Z"
       fill="#B1B0AB"
       fill-opacity="0.75"
       id="path14" />
    <path
       d="M224.377 280.416C233.345 278.228 240 270.141 240 260.5C240 249.178 230.822 240 219.5 240C216.077 240 212.85 240.839 210.013 242.323C210.311 258.101 215.923 271.98 224.377 280.416Z"
       fill="#B1B0AB"
       fill-opacity="0.75"
       id="path15" />
    <path
       d="M362.416 336.382C362.416 336.382 339.743 351.487 341.5 362.5C343.257 373.514 388.067 365.03 382.755 350.825C381.617 347.781 376 344.5 376 344.5"
       stroke="#2C0C01"
       stroke-width="5"
       stroke-linecap="round"
       id="path16" />
    <path
       d="M294.5 416.5C312.667 421.833 354.2 433.5 361 431.5C367.8 429.5 383.833 418 391 412.5"
       stroke="#2C0C01"
       stroke-width="12.5"
       stroke-linecap="round"
       id="path17" />
    <path
       d="M146 278C162.5 278 242.5 311 271 311M400 303.5C415.6 295.5 438.833 291.167 448.5 290M448 290C470 284 467.25 276.241 467.25 244.858C467.25 213.474 455.141 187 431.512 187C407.882 187 392.25 239.304 392.25 270.687"
       stroke="#2C0C01"
       stroke-width="7"
       stroke-linecap="round"
       id="path18" />
    <path
       d="M448 290C470 284 467.25 276.241 467.25 244.858C467.25 213.474 455.141 187 431.512 187C407.882 187 392.25 239.304 392.25 270.687"
       stroke="black"
       stroke-width="7"
       stroke-linecap="round"
       id="path19" />
    <path
       d="M293.781 274.854C293.794 277.242 289.862 277.606 289.245 275.298C281.632 246.821 260.322 194 207 194C171.177 194 147.066 240.722 138.24 261.139C136.599 264.935 131.349 265.418 129.844 261.566C113.401 219.48 164.254 166 207 166C249.414 166 293.386 202.813 293.781 274.854Z"
       fill="black"
       id="path20" />
    <path
       d="M272.5 506.895C208.71 477.409 150.001 459.906 64.5 440L35 506.895L-8 563L371 559C334.68 537.842 303.009 520.998 272.5 506.895Z"
       fill="#329EC5"
       id="path21" />
    <path
       fill-rule="evenodd"
       clip-rule="evenodd"
       d="m 161,465.5 c 0,0 -34.89,27.053 -35.5,47 C 124.679,539.324 177,558 177,558 H -3 L -3.043616,405.63906 Z m 155,64 154,-88 c -9.401,53.996 -15.476,83.973 -46.5,130 -42.369,-1.995 -65.77,-16.299 -107.5,-42 z"
       fill="#345dc9"
       id="path22"
       sodipodi:nodetypes="cccccccccc" />
    <path
       d="M418.5 512.5C405.529 529.055 396.323 544.434 381 561.5H391.5C405.036 544.231 411.08 530.32 418.5 512.5Z"
       fill="#192D6A"
       id="path23" />
    <path
       d="M329.5 535.621C361.5 516.5 379 497.5 402.5 474.5C363.5 499 334.23 511.297 272.5 506.895C290.829 515.368 309.577 524.829 329.5 535.621Z"
       fill="#192D6A"
       id="path24" />
    <path
       d="M402.5 474.5L407.746 479.86C410.485 477.179 410.762 472.865 408.389 469.856C406.016 466.846 401.756 466.111 398.51 468.149L402.5 474.5ZM127.216 527.503C123.076 527.384 119.622 530.644 119.503 534.784C119.384 538.924 122.644 542.378 126.784 542.497L127.216 527.503ZM221.308 565.528C224.913 567.567 229.489 566.298 231.528 562.692C233.567 559.087 232.298 554.511 228.692 552.472L221.308 565.528ZM79.7694 431.212L72.4811 429.442L68.9423 444.019L76.2306 445.788L79.7694 431.212ZM367.225 565.481C370.804 567.566 375.396 566.354 377.481 562.775C379.566 559.196 378.354 554.604 374.775 552.519L367.225 565.481ZM397.254 469.14C373.547 492.343 356.727 510.615 325.653 529.183L333.347 542.059C366.273 522.385 384.453 502.657 407.746 479.86L397.254 469.14ZM126.784 542.497C147.513 543.094 162.871 544.254 177.148 547.519C191.312 550.758 204.716 556.144 221.308 565.528L228.692 552.472C211.138 542.543 196.374 536.529 180.492 532.897C164.722 529.29 148.153 528.106 127.216 527.503L126.784 542.497ZM76.2306 445.788C162.153 466.648 205.897 484.371 269.353 513.703L275.647 500.088C211.524 470.447 166.847 452.352 79.7694 431.212L76.2306 445.788ZM269.353 513.703C287.518 522.1 306.123 531.488 325.928 542.216L333.072 529.027C313.03 518.17 294.139 508.636 275.647 500.088L269.353 513.703ZM325.928 542.216C339.09 549.345 352.781 557.066 367.225 565.481L374.775 552.519C360.218 544.039 346.391 536.241 333.072 529.027L325.928 542.216ZM398.51 468.149C379.224 480.265 362.874 489.018 343.997 494.315C325.149 499.604 303.31 501.573 273.033 499.414L271.967 514.376C303.42 516.619 327.081 514.641 348.05 508.757C368.991 502.881 386.776 493.235 406.49 480.851L398.51 468.149Z"
       fill="#192D6A"
       id="path25" />
    <path
       d="M430.5 564C464.241 523.188 464.721 481.627 466.5 436.5"
       stroke="#192D6A"
       stroke-width="15"
       stroke-linecap="round"
       stroke-linejoin="round"
       id="path26" />
    <path
       fill-rule="evenodd"
       clip-rule="evenodd"
       d="M 433.805,2.41734 440.5,47.5 c 19.363,24.3503 25.861,41.9372 35,75.5 l 6.5,38.5 c 0,0 23.504,-37.1 28.5,-64 C 515.986,67.9628 500.062,13.3459 495.945,0 H 364.412 c -1.858,33.5336 -7.768,69.7517 -13.72,106.228 C 343.31,151.464 335.863,197.098 336,238.5 356.5,218.5 388.775,168.091 399.447,143 420.954,92.4333 437.379,35.6091 433.805,2.41734 Z M 355.763,0 c -17.134,33.1346 -36.27,67.2766 -64.337,91 -7.994,6.7571 -17.031,13.539 -27.426,20.5 0.928,-18.2499 2.245,-33.5836 4.054,-48.5 2.383,-19.6525 5.62,-38.5807 9.946,-62.5 L 280.351,0 Z M 255.692,0 278,0.5 c -7.776,12.2531 -13.549,19.9012 -19,25.9485 -5.014,5.3689 -11.019,10.8337 -17.307,16.555 -0.728,0.662 -1.459,1.3274 -2.193,1.9965 -27.385,24.9645 -60.302,44.3285 -90,58.175 -0.4,0.186 -0.798,0.372 -1.193,0.556 -19.118,8.916 -31.83,14.844 -55.307,19.769 0,7.463 0.0081,14.802 0.0162,22.025 C 93.1958,307.573 94.015936,414.51118 0,539.131 V 0 Z M 496.495,0 H 554 v 99.6724 l -6.5,5.8276 c 0,0 -15.056,-25.2276 -22,-43 C 518.529,44.6591 501.618,10.3137 496.495,0 Z"
       fill="#ee4028"
       id="path27"
       sodipodi:nodetypes="cccccccccccccccccccccccccccccccccccc" />
    <path
       d="m 333.769,53.1621 c 2.043,-2.4209 5.388,-3.2963 8.356,-2.1875 2.968,1.1089 4.918,3.9631 4.874,7.1309 -1.102,78.6305 -6.669,126.9575 -19.091,197.2065 33.337,-36.084 54.287,-62.732 75.832,-107.561 l 0.218,-0.419 c 1.15,-2.052 3.204,-3.454 5.554,-3.767 25.982,-3.453 35.957,-6.762 53.425,-13.114 2.212,-0.804 4.674,-0.523 6.648,0.759 1.974,1.282 3.231,3.416 3.396,5.764 4.142,58.911 5.09,92.511 -3.213,149.256 11.685,22.971 18.592,37.53 24.927,65.343 l 0.631,2.82 0.061,0.311 c 0.055,0.313 0.09,0.628 0.105,0.945 0.779,16.648 0.102,26.475 -3.66,43.931 -0.169,0.784 -0.463,1.536 -0.87,2.227 -40.045,67.971 -132.554,98.747 -223.837,94.183 -0.833,-0.041 -1.653,-0.221 -2.427,-0.533 -74.086,-29.833 -113.384,-41.572 -189.2498,-57.619 -2.0528,-0.434 -3.8305,-1.709 -4.9003,-3.514 -1.0699,-1.805 -1.3341,-3.976 -0.7295,-5.985 11.1886,-37.186 18.6768,-87.651 24.7216,-145.617 2.9465,-28.255 4.4419,-64.762 5.1963,-94.335 0.3767,-14.759 0.5677,-27.74 0.6637,-37.03 0.049,-4.644 0.074,-8.365 0.086,-10.921 0.007,-1.278 0.01,-2.266 0.012,-2.932 10e-4,-0.333 0.002,-0.587 0.002,-0.756 v -0.251 -0.001 c 0.002,-3.024 1.819,-5.751 4.609,-6.917 l 39.5,-16.5 0.278,-0.109 c 1.396,-0.519 2.918,-0.611 4.371,-0.261 l 140.804,33.952 c 0.064,0.012 0.154,0.029 0.268,0.048 0.297,0.049 0.754,0.12 1.333,0.192 1.171,0.147 2.778,0.295 4.538,0.306 3.956,0.025 6.91,-0.66 8.286,-1.697 0.41,-0.309 1.177,-1.204 1.921,-3.281 0.716,-1.999 1.185,-4.467 1.451,-7.059 0.263,-2.552 0.305,-4.978 0.278,-6.783 -0.013,-0.868 -0.042,-1.574 -0.068,-2.059 l -8.257,-27.6844 c -0.722,-2.4237 -0.175,-5.0488 1.457,-6.9815 z"
       stroke="#3b0006"
       stroke-width="15"
       stroke-linecap="round"
       stroke-linejoin="round"
       id="path28"
       sodipodi:nodetypes="ccccccccsccccccsccccscscccsscsccccccccsscscccc" />
    <path
       d="M297.389 516.824C229.879 488.127 144.442 462.195 70 444.5L77 430.5C154.015 445.521 236.229 471.456 303.611 503.176L297.389 516.824Z"
       fill="#192D6A"
       id="path29" />
    <path
       fill-rule="evenodd"
       clip-rule="evenodd"
       d="M0 107.914V100.422C25.1659 102.404 42.6625 101.534 71.5733 100.096H71.5733H71.5734L73.5 100C48.3138 104.607 32.7293 106.746 0 107.914ZM0 198.34V136H30C23.9405 162.971 18.405 178.519 0 198.34ZM0 492.5V280.192C23.9451 247.899 36.0263 221.682 55.3359 171.698C56.2005 169.46 58.5326 168.152 60.8931 168.58C63.2536 169.009 64.977 171.054 64.9998 173.453C66.1645 296.173 55.267 365.539 4.62811 489.392C3.84819 491.3 1.99826 492.501 0 492.5ZM307 0H285C273.743 39.0099 270.773 60.3084 272.5 97.5C300.04 63.5407 306.447 41.857 307 0ZM150.863 0C100.391 47.1367 68.0939 70.5254 0 93.1832V0H150.863Z"
       fill="#811422"
       id="path30" />
    <path
       d="M50 234C28.9261 285.581 13.7453 324.34 -13 370.104L-11.217 423C18.7449 351.601 35.8735 308.469 50 234Z"
       fill="#7A1416"
       id="path31" />
    <path
       d="M42.1338 259.886C29.7794 315.474 14.5601 354.819 -9.10449 411.479L-10.4775 370.737C11.6649 332.752 25.9081 299.513 42.1338 259.886Z"
       stroke="#580009"
       stroke-width="5"
       stroke-linecap="round"
       stroke-linejoin="round"
       id="path32" />
    <path
       d="M530 143C555.254 316.977 553.026 410.179 496.5 562.5C537.188 399.326 540.765 307.386 530 143Z"
       fill="#580009"
       id="path33" />
    <path
       d="M352 22L335.5 43L344 53H353.5L359 29.5L352 22Z"
       fill="#3B0006"
       id="path34" />
    <path
       d="M93 129.5V137L98 132.5L96 126.5L93 129.5Z"
       fill="#3B0006"
       id="path35" />
    <path
       d="M434.066 4.17853L433 -3C433.437 -0.742623 433.792 1.65429 434.066 4.17853L440.5 47.5C459.863 71.8503 466.361 89.4372 475.5 123C450.946 135.084 441.723 140.185 406 143C427.131 93.3167 437.692 37.5927 434.066 4.17853Z"
       fill="#991F24"
       id="path36" />
    <path
       d="M264 111.5C264.928 93.2501 266.245 77.9164 268.054 63C257.5 56 255.563 51.9376 239.5 45C212.115 69.9645 179.198 89.3285 149.5 103.175C208.971 122.928 288.5 152 305.5 141C319.5 131.941 309.074 108.61 291.426 91C283.432 97.7571 274.395 104.539 264 111.5Z"
       fill="#991F24"
       id="path37" />
    <path
       d="M1.5 134C63.6647 131.267 109.551 121.8 149.5 103.175M475.5 123C466.361 89.4372 459.863 71.8503 440.5 47.5L433 -3C439.227 29.1391 428.728 89.5635 406 143C441.723 140.185 450.946 135.084 475.5 123ZM475.5 123L482 161.5C482 161.5 505.504 124.4 510.5 97.5C516.781 63.685 495 -3 495 -3C495 -3 516.236 41.3487 524.5 62.5C531.444 80.2724 540.5 109 540.5 109L557.5 93.5M345.5 109C345.5 109 359.5 78 359.5 -3C339.827 35.3042 324.623 62.94 291.426 91M239.5 45C255.563 51.9376 257.5 56 268.054 63M239.5 45C212.115 69.9645 179.198 89.3285 149.5 103.175M239.5 45C246.577 38.5481 251.983 33.9901 257.577 28M268.054 63C270.437 43.3475 273.674 24.4193 278 0.5C270.224 12.7531 264.451 20.4012 259 26.4485M268.054 63C266.245 77.9164 264.928 93.2501 264 111.5C274.395 104.539 283.432 97.7571 291.426 91M149.5 103.175C208.971 122.928 288.5 152 305.5 141C319.5 131.941 309.074 108.61 291.426 91"
       stroke="#3B0006"
       stroke-width="15"
       stroke-linecap="round"
       stroke-linejoin="round"
       id="path38" />
  </g>
  <defs
     id="defs38">
    <clipPath
       id="clip0_58_2">
      <rect
         width="554"
         height="558"
         fill="white"
         id="rect38" />
    </clipPath>
  </defs>
</svg>
